<?xml version="1.0" encoding="UTF-8"?>
<svg version="1.1" xmlns="http://www.w3.org/2000/svg" width="224" height="56">
<path d="M0 0 C2.1171875 2.50390625 2.1171875 2.50390625 3.875 5.5625 C4.47054687 6.57441406 5.06609375 7.58632813 5.6796875 8.62890625 C6.11539063 9.41136719 6.55109375 10.19382812 7 11 C7.42410156 10.21753906 7.84820312 9.43507813 8.28515625 8.62890625 C13.07838215 0.35927476 13.07838215 0.35927476 17.6875 -1.4375 C21 -1 21 -1 23.19140625 0.32421875 C26.11800098 4.65406193 25.41792237 9.16066051 25.25 14.25 C25.23195312 15.28125 25.21390625 16.3125 25.1953125 17.375 C25.14822712 19.91761064 25.0824805 22.45833162 25 25 C23.02 25 21.04 25 19 25 C19 18.73 19 12.46 19 6 C16.29189647 8.70810353 15.26838429 10.28938847 13.6875 13.625 C11.41413126 17.82251517 11.41413126 17.82251517 7.9375 19.3125 C5 19 5 19 2.9375 17.625 C0.21642012 13.93837564 -1.85568035 10.05038155 -4 6 C-4.33 12.27 -4.66 18.54 -5 25 C-9 26 -9 26 -11 25 C-11.14496508 21.22956968 -11.23395607 17.45985258 -11.3125 13.6875 C-11.35439453 12.61564453 -11.39628906 11.54378906 -11.43945312 10.43945312 C-11.45556641 9.41142578 -11.47167969 8.38339844 -11.48828125 7.32421875 C-11.51446533 6.37635498 -11.54064941 5.42849121 -11.56762695 4.4519043 C-11 2 -11 2 -8.66137695 0.16943359 C-5.19763893 -1.35256486 -3.55923899 -1.25759778 0 0 Z " fill="#FDFDFD" transform="translate(166,19)"/>
<path d="M0 0 C0.76376953 -0.01224609 1.52753906 -0.02449219 2.31445312 -0.03710938 C9.60151147 -0.05613564 9.60151147 -0.05613564 12.5625 2.1875 C13.375 4.75 13.375 4.75 13.5625 7.1875 C12.5625 8.1875 12.5625 8.1875 10.0625 8.3125 C7.5625 8.1875 7.5625 8.1875 6.5625 7.1875 C4.70962498 7.11523498 2.85416122 7.1036878 1 7.125 C-0.01191406 7.13402344 -1.02382812 7.14304687 -2.06640625 7.15234375 C-2.84886719 7.16394531 -3.63132813 7.17554688 -4.4375 7.1875 C-3.92775635 7.423479 -3.4180127 7.65945801 -2.89282227 7.90258789 C-0.58136775 8.99143309 1.70849316 10.11981637 4 11.25 C5.20366211 11.8059082 5.20366211 11.8059082 6.43164062 12.37304688 C12.25687015 15.29795115 12.25687015 15.29795115 13.78515625 19.74609375 C13.5625 23.1875 13.5625 23.1875 12.71875 25.60546875 C9.1518268 28.22250479 5.35486362 27.64350398 1.0625 27.5 C0.19496094 27.49033203 -0.67257813 27.48066406 -1.56640625 27.47070312 C-5.1520249 27.40697111 -8.01085169 27.3297161 -11.4375 26.1875 C-11.7675 23.8775 -12.0975 21.5675 -12.4375 19.1875 C-6.8275 19.5175 -1.2175 19.8475 4.5625 20.1875 C3.41910156 19.62160156 2.27570313 19.05570313 1.09765625 18.47265625 C-0.39328138 17.73187592 -1.88416396 16.99098478 -3.375 16.25 C-4.12974609 15.87681641 -4.88449219 15.50363281 -5.66210938 15.11914062 C-6.38076172 14.76142578 -7.09941406 14.40371094 -7.83984375 14.03515625 C-8.50491943 13.70523682 -9.16999512 13.37531738 -9.85522461 13.03540039 C-11.4375 12.1875 -11.4375 12.1875 -12.4375 11.1875 C-12.67630597 3.66511194 -12.67630597 3.66511194 -11.4375 1.1875 C-7.60964707 -0.08845098 -3.9878343 0.00334831 0 0 Z " fill="#FCFDFD" transform="translate(205.4375,17.8125)"/>
<path d="M0 0 C0.75087891 -0.00708984 1.50175781 -0.01417969 2.27539062 -0.02148438 C6.76592781 0.02985862 10.02554487 0.37907409 13.5625 3.4375 C14.12109375 5.375 14.12109375 5.375 14 7.4375 C13.97808594 8.118125 13.95617187 8.79875 13.93359375 9.5 C13.5625 11.4375 13.5625 11.4375 11.5625 14.4375 C12.5525 15.9225 12.5525 15.9225 13.5625 17.4375 C13.7578125 19.69921875 13.7578125 19.69921875 13.6875 22.125 C13.66945313 22.93324219 13.65140625 23.74148437 13.6328125 24.57421875 C13.60960938 25.18910156 13.58640625 25.80398437 13.5625 26.4375 C11.9125 26.7675 10.2625 27.0975 8.5625 27.4375 C7.5725 24.4675 6.5825 21.4975 5.5625 18.4375 C0.6344342 19.66951645 -4.04868031 21.26369527 -6.875 25.6875 C-7.060625 26.265 -7.24625 26.8425 -7.4375 27.4375 C-9.0875 27.1075 -10.7375 26.7775 -12.4375 26.4375 C-12.55377503 22.85444008 -12.6247736 19.27186583 -12.6875 15.6875 C-12.72101563 14.67171875 -12.75453125 13.6559375 -12.7890625 12.609375 C-12.88597772 5.24381821 -12.88597772 5.24381821 -10.94921875 1.76171875 C-7.34228648 -0.13991428 -3.97412912 -0.10520752 0 0 Z M-6.4375 7.4375 C-6.47842937 9.77047433 -6.47991723 12.10455225 -6.4375 14.4375 C-5.4475 14.7675 -4.4575 15.0975 -3.4375 15.4375 C-0.62963087 14.08148993 -0.62963087 14.08148993 2.25 12.125 C3.24386719 11.48949219 4.23773438 10.85398437 5.26171875 10.19921875 C6.02097656 9.61785156 6.78023437 9.03648438 7.5625 8.4375 C7.5625 7.7775 7.5625 7.1175 7.5625 6.4375 C5.41673363 6.41064062 3.27087355 6.39116912 1.125 6.375 C-0.66744141 6.35759766 -0.66744141 6.35759766 -2.49609375 6.33984375 C-5.32623341 6.09848208 -5.32623341 6.09848208 -6.4375 7.4375 Z " fill="#FDFDFD" transform="translate(85.4375,17.5625)"/>
<path d="M0 0 C0.71607422 -0.01224609 1.43214844 -0.02449219 2.16992188 -0.03710938 C5.93020596 -0.04756429 8.93794515 -0.04432489 12.0625 2.1875 C13.58741998 5.23733996 13.29812548 7.8298369 13.0625 11.1875 C11.5625 13.125 11.5625 13.125 10.0625 14.1875 C10.55363281 14.58582031 11.04476562 14.98414063 11.55078125 15.39453125 C13.49433425 17.6996755 13.379036 18.9071719 13.25 21.875 C13.22292969 22.68324219 13.19585937 23.49148437 13.16796875 24.32421875 C13.13316406 24.93910156 13.09835938 25.55398437 13.0625 26.1875 C11.0825 26.1875 9.1025 26.1875 7.0625 26.1875 C6.7325 23.8775 6.4025 21.5675 6.0625 19.1875 C4.41919053 18.29025315 4.41919053 18.29025315 2.0625 18.1875 C-0.39478148 19.34225811 -2.61503143 20.76821365 -4.9375 22.1875 C-5.5975 22.1875 -6.2575 22.1875 -6.9375 22.1875 C-6.9375 23.5075 -6.9375 24.8275 -6.9375 26.1875 C-8.9175 26.1875 -10.8975 26.1875 -12.9375 26.1875 C-12.99550828 22.58340081 -13.03109869 18.97942149 -13.0625 15.375 C-13.07925781 14.35083984 -13.09601562 13.32667969 -13.11328125 12.27148438 C-13.11972656 11.28857422 -13.12617188 10.30566406 -13.1328125 9.29296875 C-13.14328613 8.38699951 -13.15375977 7.48103027 -13.16455078 6.54760742 C-12.9375 4.1875 -12.9375 4.1875 -10.9375 1.1875 C-7.2560193 -0.03966023 -3.83339238 0.00343186 0 0 Z M-6.9375 7.1875 C-7.00929964 8.70678038 -7.02142007 10.22917482 -7 11.75 C-6.99097656 12.57628906 -6.98195313 13.40257812 -6.97265625 14.25390625 C-6.96105469 14.89199219 -6.94945312 15.53007813 -6.9375 16.1875 C-6.16664062 15.76597656 -5.39578125 15.34445313 -4.6015625 14.91015625 C-3.59867188 14.36230469 -2.59578125 13.81445312 -1.5625 13.25 C-0.06589844 12.43208984 -0.06589844 12.43208984 1.4609375 11.59765625 C2.98320346 10.7725241 4.51378783 9.96185609 6.0625 9.1875 C5.7325 8.1975 5.4025 7.2075 5.0625 6.1875 C3.25007948 6.16062721 1.43754767 6.14116285 -0.375 6.125 C-1.88900391 6.10759766 -1.88900391 6.10759766 -3.43359375 6.08984375 C-5.87771067 5.90137324 -5.87771067 5.90137324 -6.9375 7.1875 Z " fill="#FDFDFD" transform="translate(40.9375,17.8125)"/>
<path d="M0 0 C1.15822266 -0.01836914 1.15822266 -0.01836914 2.33984375 -0.03710938 C6.2482648 -0.04726991 8.17641928 -0.02822048 11.5 2.1875 C12.1147934 4.64667361 12.36085179 6.67055445 12.5 9.1875 C12.56445312 10.32058594 12.62890625 11.45367187 12.6953125 12.62109375 C12.73398438 13.85988281 12.77265625 15.09867188 12.8125 16.375 C12.84988281 17.56480469 12.88726562 18.75460938 12.92578125 19.98046875 C12.5 23.1875 12.5 23.1875 11.01171875 25.58984375 C7.43182436 27.86694609 4.09943846 27.69473995 0 27.5625 C-1.13888672 27.56056641 -1.13888672 27.56056641 -2.30078125 27.55859375 C-9.35864977 27.44734889 -9.35864977 27.44734889 -12.5 25.1875 C-14.11863273 21.95023455 -13.6845318 18.42793124 -13.6875 14.875 C-13.69974609 14.11509766 -13.71199219 13.35519531 -13.72460938 12.57226562 C-13.73549792 8.39469532 -13.66072073 4.89877116 -11.5 1.1875 C-7.65413405 -0.09445532 -4.00677403 0.00334455 0 0 Z M-7.5 7.1875 C-7.5989294 9.35230797 -7.629711 11.52043785 -7.625 13.6875 C-7.62757813 14.8734375 -7.63015625 16.059375 -7.6328125 17.28125 C-7.83210219 20.08009422 -7.83210219 20.08009422 -6.5 21.1875 C-4.31360547 21.26008946 -2.12499611 21.27123783 0.0625 21.25 C1.26003906 21.24097656 2.45757812 21.23195313 3.69140625 21.22265625 C5.08166016 21.20525391 5.08166016 21.20525391 6.5 21.1875 C6.52693575 19.06256859 6.54636628 16.93754088 6.5625 14.8125 C6.57410156 13.62914062 6.58570313 12.44578125 6.59765625 11.2265625 C6.71466593 8.26828479 6.71466593 8.26828479 5.5 6.1875 C3.52090602 6.16063447 1.54171029 6.14116625 -0.4375 6.125 C-2.09072266 6.10759766 -2.09072266 6.10759766 -3.77734375 6.08984375 C-6.41447634 5.87487429 -6.41447634 5.87487429 -7.5 7.1875 Z " fill="#FCFDFD" transform="translate(141.5,17.8125)"/>
<path d="M0 0 C0.70705078 -0.01160156 1.41410156 -0.02320312 2.14257812 -0.03515625 C6.42462707 -0.01103203 8.8770423 0.34577146 11.9375 3.375 C12.4074707 5.61157227 12.4074707 5.61157227 12.36328125 8.19140625 C12.35490234 9.12017578 12.34652344 10.04894531 12.33789062 11.00585938 C12.29438477 12.45702148 12.29438477 12.45702148 12.25 13.9375 C12.24033203 14.90880859 12.23066406 15.88011719 12.22070312 16.88085938 C12.10631842 24.03736316 12.10631842 24.03736316 10.9375 26.375 C6.83269325 27.76686294 2.65905646 27.55888476 -1.625 27.5625 C-2.77645508 27.58086914 -2.77645508 27.58086914 -3.95117188 27.59960938 C-7.84667874 27.60979815 -9.7491199 27.58392006 -13.0625 25.375 C-13.7505721 21.77182243 -13.57176286 18.09864527 -13.5625 14.4375 C-13.59085937 13.42236328 -13.61921875 12.40722656 -13.6484375 11.36132812 C-13.66786562 4.0223563 -13.66786562 4.0223563 -11.03515625 1.20703125 C-7.31628319 0.16613774 -3.83061725 -0.06319992 0 0 Z M-7.0625 6.375 C-7.08935412 8.68743792 -7.10882841 10.9999627 -7.125 13.3125 C-7.13660156 14.60027344 -7.14820312 15.88804688 -7.16015625 17.21484375 C-7.42782549 20.23798403 -7.42782549 20.23798403 -6.0625 21.375 C-4.04285801 21.44744053 -2.02082876 21.45877188 0 21.4375 C1.10472656 21.42847656 2.20945312 21.41945313 3.34765625 21.41015625 C4.20230469 21.39855469 5.05695313 21.38695312 5.9375 21.375 C6.13267554 19.43825815 6.31837873 17.50055991 6.5 15.5625 C6.60441406 14.48355469 6.70882812 13.40460937 6.81640625 12.29296875 C7.11327609 9.31017546 7.11327609 9.31017546 5.9375 6.375 C1.6475 6.375 -2.6425 6.375 -7.0625 6.375 Z " fill="#FCFDFD" transform="translate(114.0625,17.625)"/>
<path d="M0 0 C2.73828125 -0.3828125 2.73828125 -0.3828125 6 0 C7.77032835 2.08966954 8.91990887 3.75951553 10.1875 6.125 C11.16783203 7.83042969 11.16783203 7.83042969 12.16796875 9.5703125 C13.83386901 12.68899145 15.44203987 15.82619886 17 19 C18.23759823 15.28720531 18.35608897 11.68693654 18.5625 7.8125 C18.60568359 7.06291016 18.64886719 6.31332031 18.69335938 5.54101562 C18.79922685 3.69421625 18.9000976 1.84713166 19 0 C22.875 0.875 22.875 0.875 24 2 C24.33364703 5.44881216 24.32487935 8.91211844 24.375 12.375 C24.41238281 13.34695312 24.44976563 14.31890625 24.48828125 15.3203125 C24.57632223 22.40272059 24.57632223 22.40272059 21.8515625 25.2265625 C18.23547653 26.2073639 16.5223737 26.37751622 13 25 C11.03069208 22.67514388 9.7309102 20.09166294 8.375 17.375 C7.63292137 15.96608848 6.89073467 14.55723389 6.1484375 13.1484375 C5.79491211 12.45717773 5.44138672 11.76591797 5.07714844 11.05371094 C4.01668824 9.03181809 2.88573124 7.06817332 1.7265625 5.1015625 C0 2 0 2 0 0 Z " fill="#FAFBFB" transform="translate(2,19)"/>
</svg>
